<svg xmlns="http://www.w3.org/2000/svg" width="24" height="24" fill="none" viewBox="0 0 24 24"><path fill="#552a05" d="M16.23 4.86v-.01l-.22-1.3c-.15-.92-.37-2.3-2.71-2.3h-2.62c-2.33 0-2.55 1.32-2.71 2.29l-.21 1.28c-.93.06-1.86.12-2.79.21l-2.04.2c-.42.04-.72.41-.68.82s.4.71.82.67l2.04-.2c5.24-.52 10.52-.32 15.82.21h.08c.38 0 .71-.29.75-.68a.766.766 0 0 0-.69-.82c-1.61-.16-3.22-.28-4.84-.37"/><path fill="#552a05" fill-rule="evenodd" d="M18.32 7.75H5.68c-.34 0-.68.14-.91.39s-.36.59-.34.94l.62 10.26c.11 1.52.25 3.42 3.74 3.42h6.42c3.49 0 3.63-1.89 3.74-3.42l.62-10.25c.02-.36-.11-.7-.34-.95-.24-.25-.57-.39-.91-.39m-7.99 10c-.41 0-.75-.34-.75-.75s.34-.75.75-.75h3.33c.41 0 .75.34.75.75s-.34.75-.75.75zm-.83-4c-.41 0-.75-.34-.75-.75s.34-.75.75-.75h5c.41 0 .75.34.75.75s-.34.75-.75.75z" clip-rule="evenodd"/></svg>